<svg width="309" height="40" viewBox="0 0 309 40" fill="none" xmlns="http://www.w3.org/2000/svg">
<path d="M22.8918 7.23401C22.5126 7.27598 22.3704 7.31795 22.3704 7.44385C22.3704 7.56975 22.5126 7.65368 22.7496 7.77959C24.4563 8.61893 25.7363 10.3396 26.5422 11.9343C26.9215 12.6478 27.5378 13.0255 28.4385 13.0255C29.4341 13.0255 30.2874 12.312 30.2874 11.137C30.2874 9.75204 29.197 8.7868 27.8696 8.19926C26.3526 7.44385 24.3141 7.23401 23.1763 7.23401C23.0815 7.23401 22.9866 7.23401 22.8918 7.23401ZM27.3481 3.7927C27.0163 3.7927 26.8266 3.87664 26.8266 4.00254C26.8266 4.17041 26.9215 4.17041 27.3007 4.33827C28.7704 5.00975 30.3822 6.56254 31.1407 7.73762C31.757 8.7868 32.1837 8.95467 33.037 8.95467C34.2222 8.95467 34.9807 8.19926 34.9807 7.23401C34.9807 5.68123 33.7007 5.00975 32.2785 4.42221C30.9037 3.9186 29.3392 3.7927 27.9644 3.7927C27.7748 3.7927 27.5378 3.7927 27.3481 3.7927ZM7.3422 13.2353C7.3422 17.5579 8.33776 18.6911 10.6133 19.1527C7.19998 20.9573 4.63998 22.8458 3.17035 24.2727C1.70072 25.6996 0.610352 27.5042 0.610352 29.6025C0.610352 34.135 5.16146 36.7789 14.1689 36.7789C18.1511 36.7789 20.9955 36.695 23.2711 36.4432C25.6415 36.1914 26.5896 35.6458 26.5896 34.0511C26.5896 32.6661 23.84 31.1134 20.7111 31.1134C18.9096 31.533 17.8192 31.8268 16.0652 31.9947C13.8844 32.2045 12.32 32.2884 10.1392 32.2884C4.87702 32.2884 2.74369 31.1134 2.74369 29.1829C2.74369 27.6301 3.69183 26.497 5.96739 25.0701C8.6222 23.4334 13.4104 21.335 19.3363 19.7402C20.9007 19.3206 22.2755 18.9848 23.0815 18.8589C24.3141 18.6491 24.6933 18.2294 24.6933 17.432C24.6933 16.7186 24.3615 15.7953 22.5126 14.3684C20.7111 12.9416 19.4785 12.6058 18.3881 12.6058C17.9615 12.6058 17.6296 12.6478 17.3452 12.7317C17.2029 12.7737 17.1081 12.8157 17.1081 12.8996C17.1081 12.9835 17.1081 12.9835 17.3452 13.1514C18.0563 13.7389 18.3407 14.2845 18.3407 14.6622C18.3407 15.0819 17.9141 15.4596 17.44 15.7114C16.16 16.3409 15.117 16.8445 13.7422 17.516C13.5526 17.5579 13.4104 17.5579 13.3155 17.5579C12.4622 17.5579 11.9881 17.0963 11.9881 15.5435C11.9881 14.1586 11.9881 12.8576 12.1304 10.0458C12.2252 9.0386 12.4148 8.28319 12.7466 7.82155C12.8889 7.61172 13.0785 7.23401 13.0785 6.81434C13.0785 6.31073 12.8889 5.72319 11.4666 4.67401C9.75998 3.415 8.95406 3.24713 8.19554 3.24713C7.72146 3.24713 6.25183 3.5409 4.49776 4.59008C4.35554 4.67401 4.35554 4.75795 4.35554 4.84188C4.35554 4.92582 4.45035 5.05172 4.68739 5.09368C6.29924 5.42942 6.63109 5.72319 6.86813 6.14286C7.15257 6.6045 7.3422 7.35991 7.3422 9.96188V13.2353ZM42.1392 38.4576C46.2637 37.1566 50.0089 35.6038 53.1378 33.1278C56.6933 30.274 58.6844 26.6229 58.6844 22.7619C58.6844 14.7461 55.0341 11.9343 49.9615 11.9343C48.2074 11.9343 45.9792 12.5638 42.2815 14.4104C40.3378 15.3757 39.2 15.7953 37.8726 15.7953C37.4459 15.7953 36.877 15.6694 36.4504 15.5435C36.2133 15.4596 36.1185 15.4176 36.0237 15.4176C35.9289 15.4176 35.8815 15.4596 35.8341 15.5855C35.7392 15.8373 35.7392 16.1311 35.7392 16.5927C35.7392 18.0196 38.9155 20.4957 40.3852 20.4957C41.0963 20.4957 41.5229 20.3698 41.9496 19.992C42.2815 19.7402 42.7555 19.2366 43.7037 18.3134C45.6 16.5507 47.0696 15.5016 48.0652 14.956C48.7289 14.5783 49.2978 14.4943 49.7244 14.4943C51.0518 14.4943 52.9481 14.9979 52.9481 21.0832C52.9481 25.8255 51.8578 28.5534 49.8667 31.3652C47.8281 34.2189 45.1733 36.1494 41.9496 37.954C41.76 38.0799 41.7126 38.1638 41.7126 38.2897C41.7126 38.4156 41.8074 38.4996 41.9022 38.4996C41.997 38.4996 41.997 38.4996 42.1392 38.4576ZM42.5659 9.54221C42.4711 9.62614 42.4237 9.66811 42.4237 9.75204C42.4237 9.83598 42.5185 9.91991 42.6133 9.91991C42.7081 9.91991 42.7081 9.91991 42.9452 9.83598C46.2637 8.70286 48.3496 8.36713 49.6296 8.36713C49.8667 8.36713 50.2459 8.40909 50.72 8.45106C51.5733 8.535 52.1422 8.57696 53.28 8.57696C54.2755 8.57696 55.3659 8.07336 55.3659 6.68844C55.3659 5.30352 54.1807 4.12844 51.7155 3.6668C50.2933 3.6668 49.2029 3.58286 48.4918 3.5409C47.2118 3.45696 45.8844 3.24713 44.6992 2.95336C43.7511 2.70155 43.1348 2.49172 42.7081 2.19795C42.4711 2.03008 42.4237 1.98811 42.3289 1.98811C42.2341 1.98811 42.1392 2.11401 42.1392 2.65959C42.1392 4.00254 43.6089 5.42942 45.7422 6.43664C45.9318 6.52057 45.9792 6.6045 45.9792 6.73041C45.9792 6.81434 45.9318 6.89827 45.837 6.98221C44.7941 7.90549 43.7511 8.6609 42.5659 9.54221ZM91.4429 16.5088C91.0637 16.5088 90.9215 16.5507 90.9215 16.6766C90.9215 16.8025 91.0637 16.8865 91.3007 17.0124C92.8652 17.9776 94.1926 19.7822 94.8563 21.335C95.2355 22.2583 95.9467 22.552 96.6578 22.552C97.7007 22.552 98.6489 21.8386 98.6489 20.5796C98.6489 19.6143 98.08 18.5652 96.3733 17.6838C94.7615 16.7606 92.4859 16.5088 91.4429 16.5088ZM95.8992 13.1514C95.5674 13.1514 95.3778 13.1934 95.3778 13.3193C95.3778 13.4871 95.4726 13.5291 95.757 13.697C97.2741 14.4524 98.7911 16.1311 99.4074 17.3061C99.9763 18.3553 100.45 18.6071 101.304 18.6071C102.536 18.6071 103.295 17.8517 103.295 16.8865C103.295 15.4176 102.157 14.5783 100.782 13.9488C99.4074 13.3193 97.6533 13.1514 96.3733 13.1514C96.1837 13.1514 96.0415 13.1514 95.8992 13.1514ZM83.3837 11.6406C78.8326 15.8793 76.4622 20.2438 76.4622 24.8602C76.4622 27.8819 78.1689 31.4491 81.677 33.8412C85.9911 36.7789 89.357 37.1986 90.9689 37.1986C93.1496 37.1986 94.3822 36.4852 94.3822 34.7645C94.3822 33.0438 92.7229 31.8688 90.2104 31.3652C88.4089 30.9875 87.3185 30.8196 85.6118 30.1901C81.5822 28.7212 79.1644 25.6576 79.1644 22.594C79.1644 17.8517 81.6296 14.7881 87.2237 12.2281C89.9259 10.9691 92.2015 10.6334 93.9555 10.6334C96.3733 10.6334 97.4637 10.2137 97.4637 9.08057C97.4637 7.90549 96.8 7.35991 95.6148 6.81434C93.8607 5.975 91.68 5.34549 91.0637 5.34549C90.637 5.34549 90.1629 5.30352 89.5467 5.68123C88.7881 6.14286 87.9348 6.4786 86.3704 6.98221C81.8192 8.40909 74.9926 10.3816 68.4504 12.0602C67.5496 12.312 65.8904 12.5638 65.2741 12.5638C64.6104 12.5638 63.8992 12.4379 62.7615 11.7665C62.5718 11.6406 62.4296 11.5986 62.3348 11.5986C62.1452 11.5986 62.0978 11.8084 62.0978 12.5219C62.0978 13.5711 62.6192 14.0747 63.8518 15.2078C65.4637 16.6347 66.9333 17.3901 67.8815 17.3901C68.6874 17.3901 69.4459 17.0543 70.0622 16.5507C74.1867 14.8301 79.3067 12.8996 83.3837 11.6406ZM119.65 11.7665C120.219 9.87795 120.693 8.61893 121.12 7.98942C121.452 7.52778 121.689 7.02418 121.689 6.52057C121.689 5.63926 121.167 5.00975 119.176 3.6668C117.801 2.70155 116.616 2.49172 115.716 2.49172C115.241 2.49172 114.72 2.61762 113.961 2.95336C113.677 3.07926 113.582 3.16319 113.582 3.24713C113.582 3.37303 113.63 3.415 113.914 3.5409C115.241 4.08647 115.763 4.79991 115.763 5.68123C115.763 6.6045 115.384 8.32516 114.625 11.7665C108.462 11.3468 106.329 10.5494 105.333 9.62614C105.144 9.45827 105.144 9.45827 105.049 9.45827C104.954 9.45827 104.907 9.54221 104.907 9.75204C104.907 9.91991 104.954 10.1297 105.001 10.3396C105.618 12.9835 107.182 14.3684 111.259 15.1658C109.41 16.4668 107.751 17.6838 106.945 18.8589C106.424 19.6563 106.044 20.7055 106.044 21.6707C106.044 24.1468 107.799 25.6157 109.553 26.3711C110.216 26.6648 111.07 26.8747 111.97 27.0845C111.923 27.4622 111.923 27.8399 111.923 28.2176C111.923 35.5199 116 38.0379 121.689 38.0379C128.895 38.0379 133.493 33.7153 133.493 29.3927C133.493 24.5245 130.175 21.7547 123.301 18.3134C123.206 18.2714 123.159 18.2714 123.064 18.2714C122.969 18.2714 122.921 18.3553 122.921 18.4393C122.921 18.5232 122.969 18.6071 123.111 18.733C126.43 21.6288 127.852 24.2727 127.852 27.5461C127.852 32.1625 125.339 35.2681 120.646 35.2681C118.038 35.2681 115.668 34.5966 115.668 30.3999C115.668 29.4766 115.716 28.5114 115.81 27.5881C116.758 27.6301 117.707 27.672 118.56 27.672C120.93 27.672 122.779 27.1684 122.779 25.9094C122.779 24.2727 121.594 23.6432 118.797 23.2655C118.465 23.3075 117.707 23.3914 116.379 23.3914C116.521 22.7199 116.664 22.0065 116.806 21.335C117.138 19.6983 117.612 18.0196 118.181 16.2989C118.987 16.3409 119.745 16.3409 120.219 16.3409C121.689 16.2989 122.258 15.6275 122.258 14.7881C122.258 13.613 121.499 12.8576 119.461 12.354L119.65 11.7665ZM113.582 16.4248C113.156 18.6491 112.681 20.8734 112.35 23.1396C111.212 23.0137 110.216 22.8458 109.505 22.636C108.178 22.2163 107.514 21.6288 107.514 20.3697C107.514 19.6563 108.083 18.733 109.126 17.9776C110.548 16.9704 111.401 16.6766 113.582 16.4248ZM153.499 19.5304C153.499 19.3625 153.357 19.2366 153.262 19.2366C153.167 19.2366 153.025 19.3206 152.93 19.4884C151.034 22.4261 149.233 24.9861 148.284 25.8675C147.573 26.497 147.289 26.5809 146.91 26.5809C146.483 26.5809 145.819 26.0353 145.393 25.4478C144.444 24.1468 143.307 21.4189 142.311 15.7953C141.837 13.1934 141.126 12.1442 137.95 9.87795C137.807 9.79401 137.76 9.79401 137.665 9.79401C137.57 9.79401 137.476 9.87795 137.476 9.96188C137.476 10.0458 137.476 10.0458 137.523 10.1717C138.139 11.4727 138.187 12.8996 138.424 15.2498C139.04 21.5868 139.799 24.9861 140.794 27.3783C142.69 31.9947 147.099 33.8832 149.612 33.8832C151.081 33.8832 152.267 33.2117 152.267 31.8688C152.267 31.2812 152.124 30.7357 151.935 30.232C151.698 29.7284 151.556 29.2248 151.556 28.3855C151.556 27.5042 152.219 24.4825 153.499 19.6563V19.5304ZM162.554 12.8576C162.27 12.8576 162.127 12.9416 162.127 13.1094C162.127 13.2353 162.175 13.2773 162.317 13.3612C163.644 14.0327 164.924 14.914 166.204 16.2989C168.053 18.2294 168.67 20.034 168.67 21.0412C168.67 21.4609 168.48 21.7127 168.053 22.0065C167.484 22.4261 166.062 23.0557 164.545 23.6852C164.356 23.7691 164.308 23.853 164.308 23.937C164.308 24.0209 164.356 24.0629 164.545 24.1048C167.247 24.4406 168.764 24.6924 169.997 25.5317C170.424 25.8255 171.087 26.1612 171.798 26.1612C173.647 26.1612 174.785 24.9022 174.785 23.0137C174.785 20.4117 173.6 18.4393 171.23 16.4668C168.812 14.4524 165.873 13.3193 162.554 12.8576ZM192.847 19.5304C192.847 19.3625 192.705 19.2366 192.61 19.2366C192.516 19.2366 192.373 19.3206 192.279 19.4884C190.382 22.4261 188.581 24.9861 187.633 25.8675C186.921 26.497 186.637 26.5809 186.258 26.5809C185.831 26.5809 185.167 26.0353 184.741 25.4478C183.793 24.1468 182.655 21.4189 181.659 15.7953C181.185 13.1934 180.474 12.1442 177.298 9.87795C177.156 9.79401 177.108 9.79401 177.013 9.79401C176.919 9.79401 176.824 9.87795 176.824 9.96188C176.824 10.0458 176.824 10.0458 176.871 10.1717C177.487 11.4727 177.535 12.8996 177.772 15.2498C178.388 21.5868 179.147 24.9861 180.142 27.3783C182.038 31.9947 186.447 33.8832 188.96 33.8832C190.43 33.8832 191.615 33.2117 191.615 31.8688C191.615 31.2812 191.473 30.7357 191.283 30.232C191.046 29.7284 190.904 29.2248 190.904 28.3855C190.904 27.5042 191.567 24.4825 192.847 19.6563V19.5304ZM201.902 12.8576C201.618 12.8576 201.476 12.9416 201.476 13.1094C201.476 13.2353 201.523 13.2773 201.665 13.3612C202.993 14.0327 204.273 14.914 205.553 16.2989C207.401 18.2294 208.018 20.034 208.018 21.0412C208.018 21.4609 207.828 21.7127 207.401 22.0065C206.833 22.4261 205.41 23.0557 203.893 23.6852C203.704 23.7691 203.656 23.853 203.656 23.937C203.656 24.0209 203.704 24.0629 203.893 24.1048C206.596 24.4406 208.113 24.6924 209.345 25.5317C209.772 25.8255 210.436 26.1612 211.147 26.1612C212.996 26.1612 214.133 24.9022 214.133 23.0137C214.133 20.4117 212.948 18.4393 210.578 16.4668C208.16 14.4524 205.221 13.3193 201.902 12.8576ZM232.622 22.594H241.677C242.151 22.594 242.293 22.4261 242.293 22.0904C242.293 21.7547 242.009 21.4609 240.776 20.3697C239.164 18.9009 238.833 18.775 238.453 18.775C238.121 18.775 238.027 18.8589 235.419 21.7547H232.622V17.8937C233.76 17.474 234.044 17.2222 234.044 16.8445H241.914C242.578 16.8445 242.72 16.7186 242.72 16.3829C242.72 16.0471 242.436 15.7534 241.156 14.6202C239.354 13.0675 239.117 12.9416 238.69 12.9416C238.311 12.9416 238.121 13.1094 235.419 16.0052H232.622C234.756 14.0747 235.798 13.1514 237.837 11.2629C238.975 11.0111 239.496 10.8432 239.496 10.3816C239.496 9.71008 238.169 9.20647 233.57 7.94745H241.013C241.535 7.94745 241.772 7.69565 241.772 7.35991C241.772 7.10811 241.582 6.94024 239.923 5.47139C238.406 4.12844 238.074 4.00254 237.742 4.00254C237.41 4.00254 237.316 4.0445 234.613 7.10811H232.575V3.37303C233.95 2.78549 234.329 2.40778 234.329 2.07205C234.329 1.44254 233.618 0.93893 226.554 0.561225C226.744 1.61041 226.839 2.57565 226.839 3.75073V7.10811H223.71C222.145 7.10811 220.438 7.02418 218.163 6.81434L218.637 8.24123C220.628 7.98942 222.287 7.94745 223.71 7.94745H233.096C233.001 8.49303 232.859 9.1645 232.717 9.66811C232.196 11.9763 231.674 13.5711 230.868 16.0052H223.046C221.481 16.0052 219.775 15.9212 217.499 15.7114L217.973 17.1383C219.964 16.8865 221.624 16.8445 223.046 16.8445H227.076C227.265 18.5652 227.265 19.6983 227.265 21.7547H223.567C222.098 21.7547 220.865 21.7127 218.447 21.4609L218.921 22.8878C221.15 22.636 222.287 22.594 223.567 22.594H226.127C224.468 28.8052 220.249 34.5966 217.262 36.5271C217.025 36.695 217.357 37.0727 217.594 36.9468C221.102 35.436 224.516 32.9599 227.265 29.7704C227.123 34.135 226.933 37.2825 226.933 38.4156C226.933 39.4648 227.218 39.8845 229.019 39.8845C231.674 39.8845 232.907 39.255 232.907 38.1219C232.907 37.0307 232.622 34.0511 232.622 25.0281C234.376 25.9934 234.756 28.0917 235.04 30.1481C235.277 31.617 236.083 32.2465 237.363 32.2465C238.927 32.2465 240.444 31.4071 240.444 29.3088C240.444 27.1684 237.647 24.5245 232.622 24.5665V22.594ZM223.899 13.4452C223.994 14.914 224.61 15.8373 226.175 15.8373C227.881 15.8373 228.972 14.7461 228.972 12.9835C228.972 10.5914 226.033 8.7868 221.813 8.40909C221.529 8.36713 221.339 8.70286 221.576 8.82877C223.093 9.71008 223.757 11.053 223.899 13.4452ZM248.409 15.3757V7.48582C248.836 7.31795 249.073 7.15008 249.215 7.02418C253.244 6.56254 255.852 6.26877 259.881 5.68123C261.398 5.89106 261.967 5.68123 261.967 5.13565C261.967 4.38024 261.446 3.83467 256.658 0.854996C256.231 1.2327 255.71 1.65237 254.43 2.53368C252.77 3.70877 250.921 4.88385 248.883 6.01696C247.982 5.59729 246.038 5.09368 242.53 4.38024C242.72 6.31073 242.91 9.58418 242.91 17.6838C242.91 32.3724 239.876 36.695 233.144 39.5907C232.907 39.7166 233.049 40.0524 233.333 39.9684C243.81 37.2825 248.409 32.0786 248.409 17.0543V16.215H251.111C251.206 17.6838 251.159 19.6983 251.159 23.1816C251.159 32.5822 250.921 37.0727 250.921 38.2478C250.921 39.5068 251.443 39.8425 253.766 39.8425C255.71 39.8425 257.274 39.213 257.274 37.996C257.274 36.5691 256.847 32.0786 256.847 23.3914V17.2222C257.511 16.8865 257.89 16.5507 257.985 16.215H261.873C262.489 16.215 262.678 16.0891 262.678 15.8373C262.678 15.5855 262.489 15.2497 261.114 14.0327C259.028 12.1861 258.791 12.1022 258.317 12.1022C257.89 12.1022 257.511 12.5638 255.093 15.3757H248.409ZM279.508 13.8648C279.603 15.2497 279.982 15.4176 281.452 15.4176C283.775 15.4176 284.913 14.7461 284.913 13.5711C284.913 12.6897 284.723 10.1717 284.723 7.23401V5.00975C285.813 4.21237 286.003 4.0445 286.003 3.6668C286.003 3.28909 285.813 3.03729 284.344 2.03008C281.973 0.393355 281.736 0.30942 281.31 0.30942C280.883 0.30942 280.741 0.435323 278.892 2.15598H273.298C272.681 1.82024 271.022 1.44254 266.708 0.854996C266.945 3.83467 266.993 6.43664 266.993 14.5783C266.993 28.3016 266.661 36.2753 266.661 38.2897C266.661 39.5488 267.087 39.8425 268.889 39.8425C271.449 39.8425 272.587 39.255 272.587 37.7861V13.8648H279.508ZM279.508 8.28319V13.0255H272.587V8.28319H279.508ZM279.508 2.99532V7.44385H272.587V3.58286C273.108 3.415 273.393 3.20516 273.535 2.99532H279.508ZM294.916 2.15598C294.347 1.77827 292.782 1.40057 288.61 0.813029C288.8 2.78549 288.8 4.17041 288.8 6.68844C288.8 10.3816 288.658 13.2353 288.658 14.1586C288.658 15.3337 288.942 15.6275 290.554 15.6275C292.687 15.6275 293.683 15.2497 293.873 13.8648H301.41V32.7081C301.41 33.5894 301.031 34.5966 300.083 34.6806C299.182 34.7645 297.76 34.8904 295.674 34.9324C295.579 32.792 295.532 29.0989 295.532 23.5173V19.4884C296.006 19.1947 296.29 18.9848 296.385 18.733H299.609C299.893 18.733 300.083 18.5652 300.083 18.2714C300.083 17.9776 299.893 17.8097 298.329 16.5088C296.48 14.9979 296.29 14.956 295.911 14.956C295.484 14.956 295.39 14.9979 292.83 17.8937H279.224C277.896 17.8937 276.142 17.8097 274.009 17.5999L274.436 19.0268C275.858 18.817 277.043 18.775 278.133 18.733C278.228 19.7402 278.276 20.6216 278.276 22.1743V31.0714H277.564C276.379 31.0714 275.241 31.0714 274.009 31.0294C276.142 36.1494 276.379 36.695 276.948 36.695C277.422 36.695 277.707 36.4852 278.133 35.6458C281.689 34.5547 285.956 33.1698 290.222 31.8688V37.6602C290.222 38.8353 290.364 39.0452 292.403 39.0452C294.394 39.0452 295.721 38.4576 295.721 37.2825L295.674 35.5619C297.855 36.0655 299.087 36.9468 299.609 38.7094C299.893 39.6747 300.225 39.8845 301.173 39.8845C302.833 39.8845 304.634 39.3809 305.772 38.5835C307.289 37.5343 307.621 36.653 307.621 34.7225C307.621 33.0019 307.384 28.8052 307.384 15.6694V5.09368C308.569 4.21237 308.664 4.12844 308.664 3.75073C308.664 3.415 308.521 3.16319 306.625 1.77827C304.35 0.099584 304.113 0.0576172 303.591 0.0576172C303.212 0.0576172 303.022 0.0995842 300.794 2.15598H294.916ZM293.92 13.0255V8.28319H301.41V13.0255H293.92ZM301.41 2.99532V7.44385H293.92V3.62483C294.536 3.37303 294.868 3.16319 295.058 2.99532H301.41ZM283.111 27.0425H290.222V30.5258C288.041 30.6937 285.671 30.8196 283.111 30.9455V27.0425ZM283.111 22.0484V19.4884C283.585 19.1947 283.87 18.9848 283.964 18.733H290.08C290.175 19.4884 290.175 20.2858 290.222 22.0484H283.111ZM283.111 22.8878H290.222V26.2032H283.111V22.8878Z" fill="black"/>
</svg>
